<?xml version="1.0" encoding="UTF-8" standalone="no"?>
<svg
   xmlns:dc="http://purl.org/dc/elements/1.1/"
   xmlns:cc="http://creativecommons.org/ns#"
   xmlns:rdf="http://www.w3.org/1999/02/22-rdf-syntax-ns#"
   xmlns:svg="http://www.w3.org/2000/svg"
   xmlns="http://www.w3.org/2000/svg"
   xmlns:sodipodi="http://sodipodi.sourceforge.net/DTD/sodipodi-0.dtd"
   xmlns:inkscape="http://www.inkscape.org/namespaces/inkscape"
   alt="Logomarca do Nubank"
   width="4096"
   height="4096"
   version="1.1"
   id="svg4"
   sodipodi:docname="nubank-logo.svg"
   style="fill:none"
   inkscape:version="0.92.2 (5c3e80d, 2017-08-06)">
  <metadata
     id="metadata10">
    <rdf:RDF>
      <cc:Work
         rdf:about="">
        <dc:format>image/svg+xml</dc:format>
        <dc:type
           rdf:resource="http://purl.org/dc/dcmitype/StillImage" />
        <dc:title></dc:title>
      </cc:Work>
    </rdf:RDF>
  </metadata>
  <defs
     id="defs8" />
  <sodipodi:namedview
     pagecolor="#ffffff"
     bordercolor="#666666"
     borderopacity="1"
     objecttolerance="10"
     gridtolerance="10"
     guidetolerance="10"
     inkscape:pageopacity="0"
     inkscape:pageshadow="2"
     inkscape:window-width="1600"
     inkscape:window-height="837"
     id="namedview6"
     showgrid="false"
     inkscape:zoom="0.038396318"
     inkscape:cx="9410.1047"
     inkscape:cy="2732.6396"
     inkscape:window-x="-8"
     inkscape:window-y="-8"
     inkscape:window-maximized="1"
     inkscape:current-layer="svg4" />
  <path
     d="m 2073.963,2280.3816 c 0,54.6468 -65.1937,121.8027 -118.2219,121.8027 h -48.2696 c 0.048,-334.381 0.048,-709.2566 0,-775.7993 a 14.986193,14.986193 0 0 1 14.8635,-15.1332 h 136.6908 c 8.2167,0 14.9372,6.8921 14.9372,15.2559 z m -222.7572,239.1415 c 0,34.5834 -16.9238,92.517 -130.2891,92.517 -219.6913,0 -354.5424,-172.1083 -354.5424,-295.5543 0,0 -0.2452,-399.1331 -0.2452,-689.9781 a 14.961666,14.961666 0 0 1 14.8881,-15.1333 h 136.8624 c 8.2166,0 14.9616,6.843 14.9616,15.256 v 641.3159 c 0,105.9579 83.859,191.9017 187.2416,191.9017 h 131.1965 z m 218.1952,-965.7879 h -157.4655 c -33.4798,0 -60.7542,27.9612 -60.7542,62.2749 v 786.2478 h -131.1966 c -72.3802,0 -131.0496,-60.1411 -131.0496,-134.3116 V 1616.01 c 0,-34.3871 -27.2252,-62.2994 -60.7786,-62.2994 h -157.539 c -33.5534,0 -60.7787,27.9123 -60.8277,62.2994 -0.073,284.2717 0.2453,700.5004 0.2453,700.5004 0.025,218.7836 239.2883,353.1199 410.8326,353.1199 115.0576,0 186.5303,-57.6391 186.5303,-150.4997 v -59.2825 h 48.3186 c 84.7666,0 174.4385,-92.2228 174.4385,-179.4664 V 1616.01 c 0.073,-34.3871 -27.1518,-62.2994 -60.7541,-62.2994 z m -930.6647,834.5422 a 14.961666,14.961666 0 0 1 -14.8881,15.1089 H 986.9857 a 15.157884,15.157884 0 0 1 -14.96177,-15.2316 v -641.3159 c 0,-105.958 -83.88328,-191.9017 -187.24141,-191.9017 h -131.1967 v -59.6749 c 0,-34.5099 16.92385,-92.5171 130.28915,-92.5171 219.69123,0 354.59143,172.1082 354.59143,295.5543 0,0 0.2454,401.0706 0.2454,689.978 z m -693.04398,15.2314 a 15.108829,15.108829 0 0 1 -14.88807,-15.2804 v -653.7513 c 0,-54.6468 65.19357,-121.901 118.19704,-121.901 h 48.3189 c -0.0733,478.8472 -0.0733,723.8749 0,775.6277 a 15.108829,15.108829 0 0 1 -14.91257,15.2559 H 445.71683 Z M 1194.634,1698.2993 c 0.025,-218.8084 -239.2395,-353.1444 -410.75903,-353.1444 -115.08222,0 -186.55478,57.6392 -186.55478,150.4997 v 59.2824 h -48.29423 c -84.79104,0 -174.46284,92.2227 -174.46284,179.4664 v 664.3716 c 0,34.3873 27.22518,62.2994 60.75402,62.2994 h 157.44099 c 0.98106,0 1.81492,-0.2699 2.79614,-0.2699 32.17976,-1.5452 57.95805,-28.6479 57.95805,-62.0295 v -786.2478 h 131.22119 c 72.3556,0 131.04935,60.141 131.04935,134.3115 v 651.9363 c 0,34.3873 27.22535,62.2994 60.75414,62.2994 h 157.5635 c 33.5534,0 60.7543,-27.8386 60.7543,-62.2994 0.1233,-289.5696 -0.1963,-700.5004 -0.1963,-700.5004 z m 2269.4884,703.9832 a 3.7281527,3.7281527 0 0 1 -2.9923,-1.4718 l -135.9058,-180.6682 h -1.2999 v 178.3136 a 3.8262621,3.8262621 0 0 1 -3.7772,3.8999 h -48.0491 a 3.8262621,3.8262621 0 0 1 -3.7772,-3.8754 v -512.4248 c 0,-2.1583 1.6924,-3.8998 3.7772,-3.8998 h 48.0491 c 2.0847,0 3.7772,1.7416 3.7772,3.8998 v 326.7776 h 1.2999 L 3452.84,2047.3967 a 5.4695925,5.4695925 0 0 1 4.4394,-2.2076 h 55.9222 c 1.6434,0 2.4773,1.9378 1.4472,3.1395 l -137.0096,166.4424 149.9844,184.3473 a 1.9131309,1.9131309 0 0 1 -1.4225,3.1395 h -62.0787 z m -332.2224,0 a 3.8262621,3.8262621 0 0 1 -3.7772,-3.8754 v -242.6242 c 0,-53.6413 -21.3389,-80.2045 -78.1932,-80.2045 -22.8348,0 -41.5738,3.6058 -59.0126,10.9148 a 4.0224807,4.0224807 0 0 0 -2.4038,3.6792 v 308.1611 a 3.8262621,3.8262621 0 0 1 -3.8017,3.8753 h -49.3244 a 3.8507892,3.8507892 0 0 1 -3.8017,-3.8753 v -330.849 a 5.8865569,5.8865569 0 0 1 3.3356,-5.3469 c 31.9101,-14.3975 73.116,-23.6198 114.935,-23.6198 93.7434,0 135.1211,41.7454 135.1211,117.2652 v 242.6242 c 0,2.1338 -1.7169,3.8754 -3.8019,3.8754 z M 2795.3851,2200.864 c -88.5681,10.5713 -140.9096,35.8098 -140.9096,98.747 0,48.3679 29.0895,75.5196 83.3931,75.5196 20.8971,0 41.7945,-4.2187 55.4807,-10.841 a 3.899844,3.899844 0 0 0 2.0848,-3.5321 z m -62.7654,208.0408 c -83.3929,0 -132.4722,-37.1344 -132.4722,-107.9694 0,-86.1399 82.7553,-119.2517 195.2131,-130.4853 v -21.8783 c 0,-49.0547 -25.8518,-70.9085 -74.3424,-70.9085 -29.629,0 -61.7598,8.8298 -85.5022,21.5349 a 1.7904944,1.7904944 0 0 1 -2.5508,-1.0055 l -11.5524,-30.4384 a 3.9979532,3.9979532 0 0 1 1.8396,-4.9545 240.12247,240.12247 0 0 1 102.9166,-24.2821 c 75.6422,0 122.1951,36.4478 122.1951,115.9406 v 225.6269 c 0,2.2074 -1.1282,4.2677 -3.0904,5.1997 -27.7158,14.3976 -67.7935,23.6199 -112.654,23.6199 z m -328.9114,-333.9394 c -20.7011,0 -39.44,5.2732 -55.6035,13.2446 v 271.6402 c 0,1.6187 0.8339,3.0168 2.2811,3.6055 12.7787,5.3469 30.4139,8.2902 46.8472,8.2902 71.7424,0 100.1942,-62.2749 100.1942,-151.7016 0,-89.4266 -33.6026,-145.1036 -93.719,-145.1036 z m -8.3393,333.9149 c -39.7588,0 -77.1138,-10.3752 -100.611,-23.5464 a 5.7884477,5.7884477 0 0 1 -2.8698,-5.1507 v -494.2009 c 0,-2.1339 1.7169,-3.8754 3.7282,-3.8754 h 48.7603 c 2.0849,0 3.7771,1.717 3.7771,3.8754 v 169.7291 c 20.0388,-10.5959 43.9286,-15.9428 69.8294,-15.9428 81.4799,0 136.4209,68.9218 136.4209,176.842 -0.048,115.4255 -55.0147,192.2942 -159.0596,192.2942 z"
     id="path2-08"
     style="fill:#8a05be;fill-opacity:1;stroke-width:24.52732086"
     inkscape:connector-curvature="0"
     inkscape:export-filename="G:\Users\suitedoalex\sites\nubank-logo-10.png"
     inkscape:export-xdpi="21.309616"
     inkscape:export-ydpi="21.309616" />
  <rect
     style="fill:#8a05be;fill-opacity:1;fill-rule:evenodd;stroke-width:0.61947668"
     id="rect858"
     width="5458.7842"
     height="4093.2156"
     x="9355.3311"
     y="40.959385"
     inkscape:export-filename="G:\Users\suitedoalex\sites\nubank-logo-8.png"
     inkscape:export-xdpi="19.344967"
     inkscape:export-ydpi="19.344967" />
  <path
     d="m 12248.176,2451.3827 c 0,72.8284 -86.885,162.3278 -157.556,162.3278 h -64.33 c 0.07,-445.6333 0.07,-945.2341 0,-1033.9163 a 19.972265,19.972265 0 0 1 19.81,-20.1682 h 182.169 c 10.95,0 19.907,9.1852 19.907,20.3317 z m -296.871,318.7065 c 0,46.0897 -22.554,123.2984 -173.637,123.2984 -292.786,0 -472.503,-229.3706 -472.503,-393.8885 0,0 -0.327,-531.9291 -0.327,-919.5414 a 19.939577,19.939577 0 0 1 19.841,-20.1683 h 182.398 c 10.951,0 19.94,9.1197 19.94,20.3318 V 2434.81 c 0,141.2113 111.76,255.7495 249.539,255.7495 h 174.847 z m 290.791,-1287.1162 h -209.856 c -44.618,0 -80.968,37.2642 -80.968,82.9944 v 1047.8412 h -174.846 c -96.463,0 -174.652,-80.1508 -174.652,-178.9986 v -868.8427 c 0,-45.8281 -36.283,-83.0271 -81.001,-83.0271 h -209.954 c -44.716,0 -80.999,37.199 -81.065,83.0271 -0.09,378.852 0.327,933.5646 0.327,933.5646 0.04,291.5753 318.902,470.6068 547.522,470.6068 153.337,0 248.59,-76.8163 248.59,-200.5726 v -79.0065 h 64.394 c 112.97,0 232.477,-122.9063 232.477,-239.1768 v -885.4155 c 0.09,-45.8281 -36.186,-83.0271 -80.968,-83.0271 z m -1240.307,1112.2036 a 19.939577,19.939577 0 0 1 -19.842,20.1358 h -182.397 a 20.201079,20.201079 0 0 1 -19.94,-20.2993 v -854.6888 c 0,-141.2114 -111.793,-255.7495 -249.54,-255.7495 h -174.846 v -79.5294 c 0,-45.9917 22.554,-123.2986 173.638,-123.2986 292.784,0 472.567,229.3705 472.567,393.8885 0,0 0.328,534.5112 0.328,919.5413 z m -923.627,20.299 a 20.135703,20.135703 0 0 1 -19.842,-20.3643 v -871.2616 c 0,-72.8284 86.884,-162.4588 157.523,-162.4588 h 64.395 c -0.09,638.165 -0.09,964.7161 0,1033.6876 a 20.135703,20.135703 0 0 1 -19.875,20.3317 h -182.169 z m 998.123,-939.8404 c 0.04,-291.6084 -318.838,-470.6395 -547.423,-470.6395 -153.371,0 -248.624,76.8164 -248.624,200.5726 v 79.0063 h -64.362 c -113.002,0 -232.5091,122.9063 -232.5091,239.1769 v 885.4154 c 0,45.8283 36.2831,83.027 80.9671,83.027 h 209.824 c 1.307,0 2.419,-0.3596 3.726,-0.3596 42.887,-2.0594 77.241,-38.1794 77.241,-82.6674 V 1561.3257 h 174.88 c 96.43,0 174.652,80.1506 174.652,178.9985 v 868.8427 c 0,45.8283 36.283,83.027 80.967,83.027 h 209.986 c 44.718,0 80.969,-37.1008 80.969,-83.027 0.164,-385.9126 -0.262,-933.5647 -0.262,-933.5647 z m 3024.571,938.2061 a 4.9685502,4.9685502 0 0 1 -3.987,-1.9614 l -181.123,-240.7785 h -1.733 v 237.6405 a 5.0993017,5.0993017 0 0 1 -5.034,5.1974 h -64.035 a 5.0993017,5.0993017 0 0 1 -5.034,-5.1648 v -682.9142 c 0,-2.8764 2.255,-5.1973 5.034,-5.1973 h 64.035 c 2.779,0 5.034,2.3211 5.034,5.1973 v 435.5001 h 1.733 l 170.075,-220.4793 a 7.2893862,7.2893862 0 0 1 5.916,-2.9421 h 74.528 c 2.191,0 3.302,2.5826 1.929,4.1841 l -182.594,221.8196 199.885,245.6817 a 2.5496506,2.5496506 0 0 1 -1.895,4.184 h -82.734 z m -442.756,0 a 5.0993017,5.0993017 0 0 1 -5.033,-5.1648 v -323.3479 c 0,-71.4884 -28.439,-106.8894 -104.21,-106.8894 -30.431,0 -55.405,4.8055 -78.646,14.5463 a 5.3608044,5.3608044 0 0 0 -3.204,4.9033 v 410.6897 a 5.0993017,5.0993017 0 0 1 -5.067,5.1646 h -65.735 a 5.1319892,5.1319892 0 0 1 -5.067,-5.1646 v -440.9261 a 7.8450793,7.8450793 0 0 1 4.446,-7.1259 c 42.527,-19.1877 97.443,-31.4784 153.176,-31.4784 124.932,0 180.077,55.6346 180.077,156.2806 v 323.348 c 0,2.8437 -2.288,5.1648 -5.067,5.1648 z m -448.477,-268.4326 c -118.035,14.0885 -187.792,47.7241 -187.792,131.6012 0,64.4604 38.768,100.6458 111.139,100.6458 27.851,0 55.7,-5.6223 73.94,-14.4479 a 5.1973651,5.1973651 0 0 0 2.779,-4.7073 z m -83.647,277.2582 c -111.139,0 -176.549,-49.4894 -176.549,-143.892 0,-114.7996 110.29,-158.928 260.163,-173.8992 v -29.1574 c 0,-65.3758 -34.452,-94.5006 -99.076,-94.5006 -39.487,0 -82.309,11.7676 -113.95,28.6998 a 2.3862116,2.3862116 0 0 1 -3.4,-1.34 l -15.395,-40.5656 a 5.3281163,5.3281163 0 0 1 2.451,-6.6029 320.01386,320.01386 0 0 1 137.158,-32.361 c 100.809,0 162.851,48.5744 162.851,154.5153 v 300.6955 c 0,2.9418 -1.503,5.6876 -4.118,6.9296 -36.938,19.1879 -90.35,31.4785 -150.135,31.4785 z m -438.345,-445.0447 c -27.588,0 -52.562,7.0277 -74.103,17.6513 v 362.0178 c 0,2.1573 1.112,4.0206 3.04,4.8051 17.03,7.1259 40.533,11.0485 62.434,11.0485 95.611,0 133.529,-82.9945 133.529,-202.1744 0,-119.1798 -44.781,-193.3812 -124.9,-193.3812 z m -11.114,445.0121 c -52.987,0 -102.77,-13.8271 -134.085,-31.3805 a 7.7143281,7.7143281 0 0 1 -3.825,-6.8644 v -658.627 c 0,-2.8439 2.288,-5.1648 4.969,-5.1648 h 64.984 c 2.777,0 5.034,2.2882 5.034,5.1648 v 226.1998 c 26.704,-14.1213 58.543,-21.2471 93.061,-21.2471 108.59,0 181.81,91.8528 181.81,235.6792 -0.07,153.8289 -73.319,256.2726 -211.981,256.2726 z"
     id="path2-08-5"
     style="fill:#ffffff;fill-opacity:1;stroke-width:32.68783188"
     inkscape:connector-curvature="0"
     inkscape:export-filename="G:\Users\suitedoalex\sites\nubank-logo-8.png"
     inkscape:export-xdpi="19.344967"
     inkscape:export-ydpi="19.344967" />
  <rect
     style="fill:#8a05be;fill-opacity:1;fill-rule:evenodd;stroke-width:0.53679031"
     id="rect858-6"
     width="4096"
     height="4096"
     x="4758.9761"
     y="66.017319"
     inkscape:export-filename="G:\Users\suitedoalex\sites\nubank-logo-12.png"
     inkscape:export-xdpi="4.6874995"
     inkscape:export-ydpi="4.6874995" />
  <path
     inkscape:connector-curvature="0"
     d="m 7782.5529,2438.166 c 0,64.888 -77.4114,144.629 -140.3771,144.629 h -57.3157 c 0.057,-397.0456 0.057,-842.1747 0,-921.1878 -0.097,-9.8409 7.8095,-17.8907 17.6491,-17.9695 h 162.3072 c 9.7566,0 17.7365,8.1838 17.7365,18.1152 z m -264.5031,283.9578 c 0,41.0644 -20.0955,109.855 -154.706,109.855 -260.8625,0 -420.9856,-204.3622 -420.9856,-350.9425 0,0 -0.2911,-473.9326 -0.2911,-819.2834 -0.1128,-9.8585 7.8205,-17.923 17.6782,-17.9695 h 162.5112 c 9.7564,0 17.7654,8.1256 17.7654,18.1149 v 761.5018 c 0,125.8152 99.5747,227.8653 222.3317,227.8653 h 155.7837 z m 259.0861,-1146.7815 h -186.9754 c -39.7541,0 -72.1398,33.2011 -72.1398,73.9456 v 933.5946 h -155.7836 c -85.9445,0 -155.6087,-71.4117 -155.6087,-159.4824 v -774.1122 c 0,-40.8318 -32.3275,-73.9747 -72.1691,-73.9747 h -187.0626 c -39.8415,0 -72.169,33.1429 -72.2272,73.9747 -0.087,337.5456 0.2912,831.7775 0.2912,831.7775 0.03,259.7849 284.1326,419.2963 487.8249,419.2963 136.6201,0 221.487,-68.4411 221.487,-178.704 v -70.3923 h 57.3742 c 100.652,0 207.1287,-109.5058 207.1287,-213.0994 v -788.8781 c 0.087,-40.8318 -32.24,-73.9747 -72.1396,-73.9747 z m -1105.0762,990.9396 c 0.097,9.8437 -7.8321,17.8908 -17.6781,17.9403 h -162.5112 c -9.8835,0 -17.8144,-8.2042 -17.7657,-18.0859 v -761.5018 c 0,-125.8152 -99.6035,-227.8651 -222.3315,-227.8651 h -155.7836 v -70.8583 c 0,-40.9774 20.0954,-109.8553 154.706,-109.8553 260.8625,0 421.0437,204.3622 421.0437,350.9426 0,0 0.2913,476.2335 0.2913,819.2835 z m -822.9239,18.0859 c -9.8857,-0.2913 -17.7916,-8.2596 -17.6782,-18.1442 v -776.2675 c 0,-64.888 77.4112,-144.7456 140.3478,-144.7456 h 57.3741 c -0.087,568.5852 -0.087,859.5327 0,920.984 0.097,9.8846 -7.8218,17.9869 -17.7073,18.1149 h -162.3073 z m 889.2972,-837.3694 c 0.03,-259.814 -284.0742,-419.3255 -487.7374,-419.3255 -136.6492,0 -221.5161,68.4411 -221.5161,178.7041 v 70.3924 h -57.345 c -100.6812,0 -207.1581,109.5056 -207.1581,213.0994 v 788.8782 c 0,40.8315 32.3275,73.9744 72.1398,73.9744 h 186.9463 c 1.1649,0 2.155,-0.3202 3.3199,-0.3202 38.2106,-1.8348 68.8199,-34.0167 68.8199,-73.6542 v -933.5949 h 155.8125 c 85.9154,0 155.6089,71.4118 155.6089,159.4824 v 774.1125 c 0,40.8315 32.3275,73.9744 72.1398,73.9744 h 187.0917 c 39.8414,0 72.1399,-33.0554 72.1399,-73.9744 0.1464,-343.8364 -0.233,-831.7777 -0.233,-831.7777 z"
     id="path2-0-8"
     style="fill:#ffffff;fill-opacity:1;stroke-width:29.12386703"
     sodipodi:nodetypes="sscccssscscccsssscccsscsssssccsscsscccccccsscsscccccssccccccsscssssscscsssssccc"
     inkscape:export-filename="G:\Users\suitedoalex\sites\nubank-logo-12.png"
     inkscape:export-xdpi="4.6874995"
     inkscape:export-ydpi="4.6874995" />
  <path
     inkscape:connector-curvature="0"
     d="m 18205.073,2438.6238 c 0,64.888 -77.411,144.629 -140.377,144.629 h -57.316 c 0.06,-397.0456 0.06,-842.1747 0,-921.1878 -0.1,-9.8409 7.81,-17.8907 17.649,-17.9695 h 162.308 c 9.756,0 17.736,8.1838 17.736,18.1152 z m -264.503,283.9578 c 0,41.0644 -20.095,109.855 -154.706,109.855 -260.862,0 -420.986,-204.3622 -420.986,-350.9425 0,0 -0.291,-473.9326 -0.291,-819.2834 -0.112,-9.8585 7.821,-17.923 17.679,-17.9695 h 162.511 c 9.756,0 17.765,8.1256 17.765,18.1149 v 761.5018 c 0,125.8152 99.575,227.8653 222.332,227.8653 h 155.784 z m 259.086,-1146.7815 h -186.975 c -39.754,0 -72.14,33.2011 -72.14,73.9456 v 933.5946 h -155.784 c -85.944,0 -155.608,-71.4117 -155.608,-159.4824 v -774.1122 c 0,-40.8318 -32.328,-73.9747 -72.169,-73.9747 h -187.063 c -39.842,0 -72.169,33.1429 -72.227,73.9747 -0.09,337.5456 0.291,831.7775 0.291,831.7775 0.03,259.7849 284.133,419.2963 487.825,419.2963 136.62,0 221.487,-68.4411 221.487,-178.704 v -70.3923 h 57.374 c 100.652,0 207.129,-109.5058 207.129,-213.0994 v -788.8781 c 0.09,-40.8318 -32.24,-73.9747 -72.14,-73.9747 z m -1105.076,990.9396 c 0.1,9.8437 -7.832,17.8908 -17.678,17.9403 h -162.511 c -9.884,0 -17.815,-8.2042 -17.766,-18.0859 v -761.5018 c 0,-125.8152 -99.604,-227.8651 -222.332,-227.8651 h -155.783 v -70.8583 c 0,-40.9774 20.095,-109.8553 154.706,-109.8553 260.862,0 421.044,204.3622 421.044,350.9426 0,0 0.291,476.2335 0.291,819.2835 z m -822.924,18.0859 c -9.886,-0.2913 -17.792,-8.2596 -17.678,-18.1442 v -776.2675 c 0,-64.888 77.411,-144.7456 140.348,-144.7456 h 57.374 c -0.09,568.5852 -0.09,859.5327 0,920.984 0.1,9.8846 -7.822,17.9869 -17.708,18.1149 h -162.307 z m 889.297,-837.3694 c 0.03,-259.814 -284.074,-419.3255 -487.737,-419.3255 -136.649,0 -221.516,68.4411 -221.516,178.7041 v 70.3924 h -57.345 c -100.681,0 -207.158,109.5056 -207.158,213.0994 v 788.8782 c 0,40.8315 32.327,73.9744 72.139,73.9744 h 186.947 c 1.165,0 2.155,-0.3202 3.32,-0.3202 38.21,-1.8348 68.82,-34.0167 68.82,-73.6542 v -933.5949 h 155.812 c 85.915,0 155.609,71.4118 155.609,159.4824 v 774.1125 c 0,40.8315 32.327,73.9744 72.14,73.9744 h 187.091 c 39.842,0 72.14,-33.0554 72.14,-73.9744 0.147,-343.8364 -0.233,-831.7777 -0.233,-831.7777 z"
     id="path2-0-8-1"
     style="fill:#8a05be;fill-opacity:1;stroke-width:29.12386703"
     sodipodi:nodetypes="sscccssscscccsssscccsscsssssccsscsscccccccsscsscccccssccccccsscssssscscsssssccc"
     inkscape:export-filename="G:\Users\suitedoalex\sites\nubank-logo-11.png"
     inkscape:export-xdpi="32.236404"
     inkscape:export-ydpi="32.236404" />
</svg>
